<svg xmlns="http://www.w3.org/2000/svg" viewBox="0 0 128 128" shape-rendering="crispEdges">
  <rect width="128" height="128" fill="none"/>
  <rect x="48" y="8" width="32" height="8" fill="#48211d"/>
  <rect x="40" y="16" width="48" height="12" fill="#682a24"/>
  <rect x="32" y="28" width="64" height="24" fill="#2f343b"/>
  <rect x="40" y="32" width="48" height="16" fill="#59616a"/>
  <rect x="44" y="36" width="8" height="8" fill="#ffb64f"/>
  <rect x="76" y="36" width="8" height="8" fill="#ffb64f"/>
  <rect x="52" y="48" width="24" height="8" fill="#1c1f24"/>
  <rect x="28" y="52" width="72" height="24" fill="#3e454e"/>
  <rect x="36" y="56" width="56" height="16" fill="#6f7780"/>
  <rect x="44" y="60" width="40" height="8" fill="#b6472d"/>
  <rect x="16" y="52" width="16" height="42" fill="#343a42"/>
  <rect x="96" y="52" width="16" height="42" fill="#343a42"/>
  <rect x="8" y="78" width="20" height="14" fill="#6f7780"/>
  <rect x="100" y="78" width="20" height="14" fill="#6f7780"/>
  <rect x="40" y="76" width="16" height="34" fill="#30363d"/>
  <rect x="72" y="76" width="16" height="34" fill="#30363d"/>
  <rect x="34" y="108" width="26" height="10" fill="#20242a"/>
  <rect x="68" y="108" width="26" height="10" fill="#20242a"/>
  <rect x="20" y="24" width="12" height="8" fill="#d26035"/>
  <rect x="96" y="24" width="12" height="8" fill="#d26035"/>
  <rect x="24" y="16" width="8" height="8" fill="#ffb64f"/>
  <rect x="96" y="16" width="8" height="8" fill="#ffb64f"/>
  <rect x="16" y="92" width="8" height="8" fill="#ffb64f"/>
  <rect x="104" y="92" width="8" height="8" fill="#ffb64f"/>
  <rect x="34" y="120" width="60" height="4" fill="#131820" opacity="0.6"/>
</svg>
